HIERARCHY
ROOT hip
{
  OFFSET 0 0 0
  CHANNELS 6 Xposition Yposition Zposition Zrotation Yrotation Xrotation
  JOINT abdomen
  {
    OFFSET 0 20.6881 -0.73152
    CHANNELS 3 Zrotation Xrotation Yrotation
    JOINT chest
    {
      OFFSET 0 11.7043 -0.48768
      CHANNELS 3 Zrotation Xrotation Yrotation
      JOINT neck
      {
        OFFSET 0 22.1894 -2.19456
        CHANNELS 3 Zrotation Xrotation Yrotation
        JOINT head
        {
          OFFSET -0.24384 7.07133 1.2192
          CHANNELS 3 Zrotation Xrotation Yrotation
          JOINT leftEye
          {
            OFFSET 4.14528 8.04674 8.04672
            CHANNELS 3 Zrotation Xrotation Yrotation
            End Site
            {
              OFFSET 1 0 0
            }
          }
          JOINT rightEye
          {
            OFFSET -3.6576 8.04674 8.04672
            CHANNELS 3 Zrotation Xrotation Yrotation
            End Site
            {
              OFFSET 1 0 0
            }
          }
        }
      }
      JOINT rCollar
      {
        OFFSET -2.68224 19.2634 -4.8768
        CHANNELS 3 Zrotation Xrotation Yrotation
        JOINT rShldr
        {
          OFFSET -8.77824 -1.95073 1.46304
          CHANNELS 3 Zrotation Xrotation Yrotation
          JOINT rForeArm
          {
            OFFSET -28.1742 -1.7115 0.48768
            CHANNELS 3 Zrotation Xrotation Yrotation
            JOINT rHand
            {
              OFFSET -22.5879 0.773209 7.07136
              CHANNELS 3 Zrotation Xrotation Yrotation
              JOINT rThumb1
              {
                OFFSET -1.2192 -0.487915 3.41376
                CHANNELS 3 Zrotation Xrotation Yrotation
                JOINT rThumb2
                {
                  OFFSET -3.37035 -0.52449 3.41376
                  CHANNELS 3 Zrotation Xrotation Yrotation
                  End Site
                  {
                    OFFSET -1.78271 -1.18214 1.43049
                  }
                }
              }
              JOINT rIndex1
              {
                OFFSET -7.75947 0.938293 5.60832
                CHANNELS 3 Zrotation Xrotation Yrotation
                JOINT rIndex2
                {
                  OFFSET -2.54057 -0.884171 1.56538
                  CHANNELS 3 Zrotation Xrotation Yrotation
                  End Site
                  {
                    OFFSET -1.62519 -0.234802 1.16502
                  }
                }
              }
              JOINT rMid1
              {
                OFFSET -8.24714 1.18213 3.41376
                CHANNELS 3 Zrotation Xrotation Yrotation
                JOINT rMid2
                {
                  OFFSET -3.10165 -0.590103 1.0647
                  CHANNELS 3 Zrotation Xrotation Yrotation
                  End Site
                  {
                    OFFSET -2.48547 -0.328903 0.83742
                  }
                }
              }
              JOINT rRing1
              {
                OFFSET -8.82822 0.546677 1.51678
                CHANNELS 3 Zrotation Xrotation Yrotation
                JOINT rRing2
                {
                  OFFSET -2.60934 -0.819778 -0.0198488
                  CHANNELS 3 Zrotation Xrotation Yrotation
                  End Site
                  {
                    OFFSET -2.33842 -0.294052 0.168128
                  }
                }
              }
              JOINT rPinky1
              {
                OFFSET -8.27202 -0.0477905 -0.4584
                CHANNELS 3 Zrotation Xrotation Yrotation
                JOINT rPinky2
                {
                  OFFSET -1.82734 -0.647385 -0.700984
                  CHANNELS 3 Zrotation Xrotation Yrotation
                  End Site
                  {
                    OFFSET -1.69225 -0.51767 -0.607171
                  }
                }
              }
            }
          }
        }
      }
      JOINT lCollar
      {
        OFFSET 2.68224 19.2634 -4.8768
        CHANNELS 3 Zrotation Xrotation Yrotation
        JOINT lShldr
        {
          OFFSET 8.77824 -1.95073 1.46304
          CHANNELS 3 Zrotation Xrotation Yrotation
          JOINT lForeArm
          {
            OFFSET 28.1742 -1.7115 0.48768
            CHANNELS 3 Zrotation Xrotation Yrotation
            JOINT lHand
            {
              OFFSET 22.5879 0.773209 7.07136
              CHANNELS 3 Zrotation Xrotation Yrotation
              JOINT lThumb1
              {
                OFFSET 1.2192 -0.487915 3.41376
                CHANNELS 3 Zrotation Xrotation Yrotation
                JOINT lThumb2
                {
                  OFFSET 3.37035 -0.52449 3.41376
                  CHANNELS 3 Zrotation Xrotation Yrotation
                  End Site
                  {
                    OFFSET 1.78271 -1.18214 1.43049
                  }
                }
              }
              JOINT lIndex1
              {
                OFFSET 7.75947 0.938293 5.60832
                CHANNELS 3 Zrotation Xrotation Yrotation
                JOINT lIndex2
                {
                  OFFSET 2.54057 -0.884171 1.56538
                  CHANNELS 3 Zrotation Xrotation Yrotation
                  End Site
                  {
                    OFFSET 1.62519 -0.234802 1.16502
                  }
                }
              }
              JOINT lMid1
              {
                OFFSET 8.24714 1.18213 3.41376
                CHANNELS 3 Zrotation Xrotation Yrotation
                JOINT lMid2
                {
                  OFFSET 3.10165 -0.590103 1.0647
                  CHANNELS 3 Zrotation Xrotation Yrotation
                  End Site
                  {
                    OFFSET 2.48547 -0.328903 0.83742
                  }
                }
              }
              JOINT lRing1
              {
                OFFSET 8.82822 0.546677 1.51678
                CHANNELS 3 Zrotation Xrotation Yrotation
                JOINT lRing2
                {
                  OFFSET 2.60934 -0.819778 -0.0198488
                  CHANNELS 3 Zrotation Xrotation Yrotation
                  End Site
                  {
                    OFFSET 2.33842 -0.294052 0.168128
                  }
                }
              }
              JOINT lPinky1
              {
                OFFSET 8.27202 -0.0477905 -0.4584
                CHANNELS 3 Zrotation Xrotation Yrotation
                JOINT lPinky2
                {
                  OFFSET 1.82734 -0.647385 -0.700984
                  CHANNELS 3 Zrotation Xrotation Yrotation
                  End Site
                  {
                    OFFSET 1.69225 -0.51767 -0.607171
                  }
                }
              }
            }
          }
        }
      }
    }
  }
  JOINT rButtock
  {
    OFFSET -8.77824 4.35084 1.2192
    CHANNELS 3 Zrotation Xrotation Yrotation
    JOINT rThigh
    {
      OFFSET 0 -1.70687 -2.19456
      CHANNELS 3 Zrotation Xrotation Yrotation
      JOINT rShin
      {
        OFFSET 0 -36.8199 0.73152
        CHANNELS 3 Zrotation Xrotation Yrotation
        JOINT rFoot
        {
          OFFSET 0.73152 -45.1104 -5.12064
          CHANNELS 3 Zrotation Xrotation Yrotation
          End Site
          {
            OFFSET -1.1221 -3.69964 12.103
          }
        }
      }
    }
  }
  JOINT lButtock
  {
    OFFSET 8.77824 4.35084 1.2192
    CHANNELS 3 Zrotation Xrotation Yrotation
    JOINT lThigh
    {
      OFFSET 0 -1.70687 -2.19456
      CHANNELS 3 Zrotation Xrotation Yrotation
      JOINT lShin
      {
        OFFSET 0 -36.8199 0.73152
        CHANNELS 3 Zrotation Xrotation Yrotation
        JOINT lFoot
        {
          OFFSET -0.73152 -45.1104 -5.12064
          CHANNELS 3 Zrotation Xrotation Yrotation
          End Site
          {
            OFFSET 1.1221 -3.69964 12.103
          }
        }
      }
    }
  }
}
MOTION
Frames:	9
Frame Time:	0.00833333
2.39235 80.4907 -236.603 0.0 0.0 0.0 1.57508 -0.00270752 0.0428973 0.434178 0.00151716 0.0751894 6.11586e-14 1.59028e-15 1.49088e-16 1.83699e-13 9.54166e-15 4.65902e-16 -0.0 0.0 0.0 -0.0 0.0 0.0 3.07116e-14 -5.94024e-17 2.48481e-16 6.43448e-13 -1.04362e-15 4.57205e-15 1.10697e-11 -3.34674e-12 -6.99722e-14 1.26537e-10 3.08986e-12 5.34333e-13 2.98511e-10 -5.57937e-13 9.79611e-13 5.15503e-10 -9.66889e-13 1.67615e-12 2.98517e-10 -5.5938e-13 9.70069e-13 7.73091 5.47488 0.417314 2.98511e-10 -5.57989e-13 9.7325e-13 2.90554 0.965183 0.102902 2.98516e-10 -5.58088e-13 9.74045e-13 10.2786 0.731801 0.0259123 2.98505e-10 -5.54609e-13 9.7643e-13 2.22167 -0.733487 -0.20892 3.04167e-14 -6.0179e-17 -4.96962e-17 6.39884e-13 -1.43498e-15 2.98177e-15 1.10451e-11 3.27259e-12 -8.26944e-14 1.26551e-10 -3.5331e-12 5.50236e-13 2.98494e-10 -5.64779e-13 9.7325e-13 5.15502e-10 -9.7325e-13 1.67377e-12 2.98491e-10 -5.66934e-13 9.82791e-13 -7.73091 5.47488 -0.417314 2.98494e-10 -5.64847e-13 9.7325e-13 -2.90554 0.965183 -0.102902 2.98485e-10 -5.65344e-13 9.75635e-13 -10.2786 0.731801 -0.0259123 2.98496e-10 -5.62163e-13 9.66889e-13 -2.22167 -0.733487 0.20892 -2.03217e-16 0.0 -3.88251e-19 1.70397 -6.60411 -0.159286 0.00259289 6.39984 0.0734174 -0.527093 0.199671 0.063981 2.03217e-16 0.0 3.88251e-19 0.691368 -1.9236 0.00559257 0.00918226 -2.07857 0.0757878 0.503657 3.99746 -0.139058
1.16356 77.2584 -242.723 -5.1776 -0.1183 27.2584 3.07159 4.97174 1.76042 0.0121149 -2.32921 0.527527 -0.690098 0.106882 -0.942427 0.7716 -9.82609 -1.47373 -0.0 0.0 0.0 -0.0 0.0 0.0 5.35732e-14 -2.71002e-14 -2.50344e-15 20.3889 12.0725 0.929844 -26.8821 -24.5251 13.8598 0.0111847 -2.40999 -0.337739 4.86711e-10 4.74173e-09 -1.37953e-09 8.51093e-10 8.16635e-09 -2.38393e-09 4.86716e-10 4.74173e-09 -1.37953e-09 7.73091 5.47488 0.417314 4.86711e-10 4.74173e-09 -1.37953e-09 2.90554 0.965183 0.102902 4.86719e-10 4.74173e-09 -1.37953e-09 10.2786 0.731801 0.0259123 4.86706e-10 4.74173e-09 -1.37953e-09 2.22167 -0.733487 -0.20892 5.32969e-14 -2.71062e-14 -2.81637e-15 -23.6844 11.4929 11.714 25.0435 -22.8529 -14.4251 -0.0540589 -5.16154 0.714818 4.12826e-10 4.09251e-10 4.99029e-10 7.05377e-10 7.00785e-10 8.66101e-10 4.12824e-10 4.09251e-10 4.99041e-10 -7.73091 5.47488 -0.417314 4.12828e-10 4.09252e-10 4.9903e-10 -2.90554 0.965183 -0.102902 4.12821e-10 4.09252e-10 4.99033e-10 -10.2786 0.731801 -0.0259123 4.1283e-10 4.09255e-10 4.99024e-10 -2.22167 -0.733487 0.20892 -2.03217e-16 0.0 -3.88251e-19 2.71179 -6.12569 0.20587 0.0351509 17.1558 0.282791 -0.47831 9.60063 -2.20543 2.03217e-16 0.0 3.88251e-19 1.44165 -23.6761 1.51772 0.144431 16.1127 -0.10416 -0.133763 1.9217 -4.60223
0.961815 77.0196 -240.082 -5.122 0.1029 26.9041 4.40842 10.2028 3.63903 -0.413113 -4.78753 1.01495 -1.41779 0.214452 -1.93878 0.991284 -20.1784 -3.18699 -0.0 0.0 0.0 -0.0 0.0 0.0 8.07398e-14 -6.10477e-14 -5.69021e-15 41.3517 24.917 2.16406 -38.4718 -45.2237 38.1866 -0.00823546 -4.89366 -0.687894 7.06245e-10 1.01077e-08 -3.04768e-09 1.24339e-09 1.74049e-08 -5.2665e-09 7.06249e-10 1.01077e-08 -3.04768e-09 7.73091 5.47488 0.417314 7.06244e-10 1.01077e-08 -3.04768e-09 2.90554 0.965183 0.102902 7.06257e-10 1.01077e-08 -3.04768e-09 10.2786 0.731801 0.0259123 7.06241e-10 1.01077e-08 -3.04767e-09 2.22167 -0.733487 -0.20892 8.0483e-14 -6.10592e-14 -6.01945e-15 -54.0637 21.9957 25.7653 36.0191 -41.734 -37.8725 0.0310757 -10.6209 1.4908 5.67034e-10 9.12411e-10 1.14861e-09 9.61919e-10 1.56167e-09 1.99311e-09 5.67033e-10 9.12413e-10 1.14862e-09 -7.73091 5.47488 -0.417314 5.67037e-10 9.12413e-10 1.14861e-09 -2.90554 0.965183 -0.102902 5.67033e-10 9.12413e-10 1.14861e-09 -10.2786 0.731801 -0.0259123 5.67039e-10 9.12416e-10 1.1486e-09 -2.22167 -0.733487 0.20892 -2.03217e-16 0.0 -3.88251e-19 3.83377 -5.45944 0.671236 -0.024157 28.2664 0.542827 0.447396 19.592 -4.85792 2.03217e-16 0.0 3.88251e-19 4.12209 -46.7365 4.22735 0.432185 35.3088 -0.349808 -1.1487 -0.12449 -9.39863
0.774346 76.7129 -237.47 -4.9719 0.4495 26.5719 5.14479 14.8654 5.35533 -0.72089 -6.98877 1.44161 -2.05975 0.3203 -2.82732 0.609897 -29.3943 -5.00153 -0.0 0.0 0.0 -0.0 0.0 0.0 9.92964e-14 -8.11819e-14 -8.00729e-15 59.7537 36.1745 3.37996 -31.0662 -49.9432 72.1017 -0.0522591 -7.22897 -1.02043 8.63111e-10 1.42263e-08 -4.14054e-09 1.52227e-09 2.4501e-08 -7.15515e-09 8.63114e-10 1.42263e-08 -4.14054e-09 7.73091 5.47488 0.417314 8.63111e-10 1.42263e-08 -4.14053e-09 2.90554 0.965183 0.102902 8.63126e-10 1.42263e-08 -4.14053e-09 10.2786 0.731801 0.0259123 8.63108e-10 1.42263e-08 -4.14053e-09 2.22167 -0.733487 -0.20892 9.90574e-14 -8.11981e-14 -8.34973e-15 -85.6933 28.3834 39.9874 31.1211 -46.4109 -68.226 0.23646 -15.4748 2.21613 6.41491e-10 1.22888e-09 1.49514e-09 1.08513e-09 2.1043e-09 2.59496e-09 6.4149e-10 1.22889e-09 1.49516e-09 -7.73091 5.47488 -0.417314 6.41495e-10 1.22889e-09 1.49514e-09 -2.90554 0.965183 -0.102902 6.41493e-10 1.22889e-09 1.49515e-09 -10.2786 0.731801 -0.0259123 6.41497e-10 1.22889e-09 1.49514e-09 -2.22167 -0.733487 0.20892 -2.03217e-16 0.0 -3.88251e-19 4.70905 -5.16823 0.934342 -0.197754 38.6653 0.851317 2.10204 28.215 -7.55337 2.03217e-16 0.0 3.88251e-19 10.9034 -66.8469 10.6284 0.922219 52.4929 -0.741862 -2.37044 -2.14987 -13.5312
0.675332 76.2464 -234.836 -4.5388 0.6559 26.0824 5.05068 18.1615 6.51193 -0.815954 -8.54923 1.70729 -2.49398 0.422135 -3.44629 -0.0124682 -35.8487 -6.5268 -0.0 0.0 0.0 -0.0 0.0 0.0 9.63276e-14 -6.67831e-14 -8.15017e-15 73.1149 43.5247 3.82599 -27.1937 -43.4741 90.4085 -0.104813 -9.19415 -1.30347 8.63307e-10 1.52265e-08 -3.79517e-09 1.5176e-09 2.62407e-08 -6.55901e-09 8.63311e-10 1.52266e-08 -3.79517e-09 7.73091 5.47488 0.417314 8.63308e-10 1.52266e-08 -3.79517e-09 2.90554 0.965183 0.102902 8.63324e-10 1.52266e-08 -3.79516e-09 10.2786 0.731801 0.0259123 8.63305e-10 1.52266e-08 -3.79516e-09 2.22167 -0.733487 -0.20892 9.61024e-14 -6.68016e-14 -8.49804e-15 -109.43 30.8116 49.8107 27.8614 -41.0899 -85.8979 0.455313 -18.8245 2.74616 5.16569e-10 1.07863e-09 1.08407e-09 8.74998e-10 1.85128e-09 1.88391e-09 5.16569e-10 1.07864e-09 1.08409e-09 -7.73091 5.47488 -0.417314 5.16574e-10 1.07864e-09 1.08408e-09 -2.90554 0.965183 -0.102902 5.16572e-10 1.07864e-09 1.08408e-09 -10.2786 0.731801 -0.0259123 5.16576e-10 1.07864e-09 1.08407e-09 -2.22167 -0.733487 0.20892 -2.03217e-16 0.0 -3.88251e-19 4.98735 -5.81512 0.693606 -0.462031 47.2871 1.17665 3.61196 33.6146 -9.51414 2.03217e-16 0.0 3.88251e-19 28.0734 -79.5702 27.6177 1.6136 64.6483 -1.33129 -3.49622 -4.20471 -15.9982
0.701575 76.3067 -232.122 -3.5953 0.7789 25.853 4.12237 19.5996 6.77707 -0.655235 -9.20602 1.74229 -2.63683 0.526607 -3.69374 -0.230057 -38.5274 -7.18915 -0.0 0.0 0.0 -0.0 0.0 0.0 5.70748e-14 1.2287e-14 -3.88174e-15 80.3022 45.4437 2.56525 -27.6822 -38.9669 92.7982 -0.148528 -10.7135 -1.52411 5.92338e-10 1.10533e-08 -8.40277e-10 1.02058e-09 1.90999e-08 -1.45477e-09 5.92344e-10 1.10533e-08 -8.4028e-10 7.73091 5.47488 0.417314 5.92341e-10 1.10533e-08 -8.40275e-10 2.90554 0.965183 0.102902 5.92354e-10 1.10533e-08 -8.40272e-10 10.2786 0.731801 0.0259123 5.92335e-10 1.10533e-08 -8.40266e-10 2.22167 -0.733487 -0.20892 5.68571e-14 1.227e-14 -4.22068e-15 -118.282 32.0191 51.9145 27.9539 -37.3698 -89.8787 0.557064 -20.1 2.95615 1.25923e-11 8.29478e-11 -7.62675e-10 3.1002e-11 1.58151e-10 -1.31475e-09 1.2592e-11 8.29538e-11 -7.6266e-10 -7.73091 5.47488 -0.417314 1.25967e-11 8.29528e-11 -7.62671e-10 -2.90554 0.965183 -0.102902 1.25948e-11 8.29523e-11 -7.62669e-10 -10.2786 0.731801 -0.0259123 1.25985e-11 8.29542e-11 -7.62678e-10 -2.22167 -0.733487 0.20892 -2.03217e-16 0.0 -3.88251e-19 4.41412 -7.71405 -0.254546 -0.730473 53.4631 1.43613 3.83772 34.6928 -9.77391 2.03217e-16 0.0 3.88251e-19 41.1076 -82.9503 41.2278 2.14462 69.821 -1.79843 -4.1825 -6.40339 -16.1394
0.701485 76.0348 -229.483 -2.797 0.9127 25.536 2.67094 19.7192 6.37269 -0.319007 -9.21797 1.61078 -2.57288 0.632671 -3.67554 0.0667292 -38.5306 -7.06654 -0.0 0.0 0.0 -0.0 0.0 0.0 -7.80219e-15 1.36773e-13 3.47252e-15 82.9688 43.4397 0.135663 -28.1199 -37.703 88.4355 -0.181729 -11.9111 -1.69904 1.30148e-10 3.22317e-09 3.95018e-09 1.76437e-10 5.68176e-09 6.82052e-09 1.30158e-10 3.22317e-09 3.95018e-09 7.73091 5.47488 0.417314 1.30153e-10 3.22317e-09 3.95018e-09 2.90554 0.965183 0.102902 1.30162e-10 3.22317e-09 3.95018e-09 10.2786 0.731801 0.0259123 1.30143e-10 3.22317e-09 3.95019e-09 2.22167 -0.733487 -0.20892 -8.01716e-15 1.36761e-13 3.1526e-15 -115.887 33.2186 48.281 28.0728 -37.0269 -87.7845 0.541729 -19.8946 2.92241 -7.57379e-10 -1.50747e-09 -3.61705e-09 -1.25779e-09 -2.54809e-09 -6.25935e-09 -7.5738e-10 -1.50747e-09 -3.61704e-09 -7.73091 5.47488 -0.417314 -7.57376e-10 -1.50747e-09 -3.61704e-09 -2.90554 0.965183 -0.102902 -7.5738e-10 -1.50747e-09 -3.61705e-09 -10.2786 0.731801 -0.0259123 -7.57374e-10 -1.50747e-09 -3.61705e-09 -2.22167 -0.733487 0.20892 -2.03217e-16 0.0 -3.88251e-19 3.12012 -10.5052 -1.72481 -0.955545 57.8909 1.61269 2.98625 32.7051 -8.7029 2.03217e-16 0.0 3.88251e-19 24.0767 -80.9283 25.3548 2.19026 70.0062 -1.81961 -4.36534 -8.75672 -14.6121
0.762234 75.774 -226.854 -1.7923 0.9905 25.263 0.985881 19.2833 5.69568 0.097932 -8.98434 1.41126 -2.43265 0.726545 -3.54164 0.578702 -37.4255 -6.60168 -0.0 0.0 0.0 -0.0 0.0 0.0 -7.30914e-14 2.53306e-13 9.87323e-15 83.2883 39.7996 -2.44175 -28.3749 -37.042 81.5623 -0.208152 -12.865 -1.83927 -3.25606e-10 -4.77725e-09 8.52125e-09 -6.53985e-10 -8.03681e-09 1.47172e-08 -3.25592e-10 -4.77726e-09 8.52125e-09 7.73091 5.47488 0.417314 -3.25599e-10 -4.77725e-09 8.52125e-09 2.90554 0.965183 0.102902 -3.25595e-10 -4.77726e-09 8.52125e-09 10.2786 0.731801 0.0259123 -3.25612e-10 -4.77725e-09 8.52126e-09 2.22167 -0.733487 -0.20892 -7.33039e-14 2.53298e-13 9.57078e-15 -108.917 34.0359 42.1424 28.1969 -37.771 -83.2598 0.478122 -19.0574 2.78529 -1.47387e-09 -3.02855e-09 -6.27442e-09 -2.457e-09 -5.13767e-09 -1.0863e-08 -1.47387e-09 -3.02855e-09 -6.27441e-09 -7.73091 5.47488 -0.417314 -1.47387e-09 -3.02855e-09 -6.27442e-09 -2.90554 0.965183 -0.102902 -1.47387e-09 -3.02855e-09 -6.27442e-09 -10.2786 0.731801 -0.0259123 -1.47387e-09 -3.02855e-09 -6.27443e-09 -2.22167 -0.733487 0.20892 -2.03217e-16 0.0 -3.88251e-19 1.34167 -13.7375 -3.44224 -1.16588 61.5545 1.76556 1.88404 29.399 -7.22496 2.03217e-16 0.0 3.88251e-19 9.0951 -75.852 11.6635 1.99209 68.1096 -1.62527 -4.16603 -11.1708 -12.3813
0.877087 75.5272 -224.235 -0.626 0.9966 25.0398 -0.635762 19.058 5.14253 0.498498 -8.90457 1.24199 -2.34542 0.794365 -3.44203 0.988332 -36.7787 -6.25394 -0.0 0.0 0.0 -0.0 0.0 0.0 -1.13581e-13 3.08516e-13 1.1281e-14 84.0548 36.8752 -4.58849 -28.4329 -35.5128 76.1961 -0.234223 -13.6531 -1.95636 -5.77266e-10 -9.46136e-09 1.0818e-08 -1.10984e-09 -1.60787e-08 1.86857e-08 -5.77251e-10 -9.46136e-09 1.0818e-08 7.73091 5.47488 0.417314 -5.77259e-10 -9.46136e-09 1.0818e-08 2.90554 0.965183 0.102902 -5.77257e-10 -9.46136e-09 1.0818e-08 10.2786 0.731801 0.0259123 -5.77273e-10 -9.46135e-09 1.0818e-08 2.22167 -0.733487 -0.20892 -1.13787e-13 3.08511e-13 1.09829e-14 -104.182 34.6625 37.0766 28.3571 -37.7002 -79.8912 0.435932 -18.4374 2.68549 -1.8174e-09 -3.8162e-09 -7.53016e-09 -3.03222e-09 -6.48084e-09 -1.30389e-08 -1.8174e-09 -3.8162e-09 -7.53015e-09 -7.73091 5.47488 -0.417314 -1.8174e-09 -3.8162e-09 -7.53016e-09 -2.90554 0.965183 -0.102902 -1.81741e-09 -3.8162e-09 -7.53016e-09 -10.2786 0.731801 -0.0259123 -1.8174e-09 -3.8162e-09 -7.53017e-09 -2.22167 -0.733487 0.20892 -2.03217e-16 0.0 -3.88251e-19 -0.589781 -16.9633 -5.12168 -1.46894 65.437 2.02682 1.1205 26.5655 -6.10105 2.03217e-16 0.0 3.88251e-19 2.2333 -71.7115 5.88887 1.89146 67.0363 -1.54396 -3.87436 -13.5151 -10.4255
